<svg width="505" height="211" viewBox="0 0 505 211" fill="none" xmlns="http://www.w3.org/2000/svg">
<path d="M505 211L470.442 203.724C470.996 202.87 471.294 201.878 471.302 200.862C471.302 196.047 464.579 192.142 456.269 192.142C452.579 192.062 448.93 192.928 445.673 194.656C445.673 190.691 444.09 186.886 441.27 184.082C438.451 181.278 434.627 179.703 430.64 179.703C430.64 169.003 418.135 160.337 402.698 160.337C400.151 160.337 397.61 160.587 395.113 161.085C399.066 144.447 388.471 122.753 367.79 108.255C347.109 93.7564 323.47 91.1884 309.028 100.23C307.114 92.9289 302.822 86.4644 296.822 81.8473C290.823 77.2302 283.454 74.7207 275.868 74.7106C270.146 74.7092 264.516 76.1329 259.49 78.8523C254.463 81.5718 250.201 85.5011 247.093 90.2797C247.107 90.0837 247.107 89.8866 247.093 89.6906C247.093 81.425 236.093 74.7106 222.539 74.7106C215.434 74.4616 208.455 76.6217 202.746 80.8364C204.116 77.7965 204.428 74.3888 203.633 71.1527C202.95 68.3756 201.484 65.8511 199.406 63.875C197.329 61.8988 194.728 60.5535 191.908 59.9984C188.852 59.411 185.688 59.7795 182.851 61.0537C180.015 62.3279 177.645 64.4455 176.068 67.1142C169.845 47.6522 157.563 30.6621 140.996 18.598C124.429 6.53389 104.436 0.0210067 83.9042 0C65.2483 0.00164773 46.9917 5.37486 31.3388 15.4711C15.686 25.5673 3.3053 39.9549 -4.30661 56.8963C-6.59476 53.8946 -9.54984 51.4598 -12.9419 49.7844C-16.334 48.1091 -20.0696 47.2377 -23.8568 47.2388C-29.4395 47.2476 -34.8544 49.1422 -39.2128 52.6122C-43.5712 56.0822 -46.6156 60.9222 -47.8467 66.3383C-58.5925 59.7576 -70.9689 56.2841 -83.5881 56.3072C-97.9276 56.3023 -111.905 60.7837 -123.542 69.1178C-135.179 77.4518 -143.885 89.2159 -148.427 102.744C-149.854 95.9929 -153.573 89.9358 -158.96 85.5907C-164.347 81.2455 -171.074 78.8775 -178.01 78.8837C-184.795 78.8865 -191.381 81.164 -196.704 85.3477C-202.028 89.5314 -205.779 95.3773 -207.351 101.942C-211.585 95.5783 -217.538 90.5322 -224.527 87.3853C-231.516 84.2384 -239.256 83.1187 -246.857 84.1539C-255.228 85.2933 -263.033 88.996 -269.191 94.7479C-275.35 100.5 -279.557 108.016 -281.226 116.253C-283.246 126.256 -281.371 136.649 -275.982 145.33C-279.776 143.695 -283.868 142.848 -288.004 142.842C-294.33 142.846 -300.495 144.827 -305.629 148.503C-310.763 152.179 -314.607 157.367 -316.618 163.333C-319.355 159.135 -323.104 155.685 -327.524 153.298C-331.944 150.91 -336.894 149.661 -341.924 149.663C-349.927 149.663 -357.603 152.826 -363.262 158.454C-368.92 164.083 -372.099 171.716 -372.099 179.676C-372.079 181.281 -371.935 182.882 -371.668 184.465C-378.779 182.391 -386.259 181.879 -393.587 182.967C-410.127 185.053 -421.691 193.827 -422.229 199.016C-422.508 200.35 -422.377 201.737 -421.854 202.996C-421.332 204.255 -420.44 205.329 -419.296 206.079L-441 210.946L505 211Z" fill="white"/>
<path d="M505 211L470.442 203.724C470.996 202.87 471.294 201.878 471.302 200.862C471.302 196.047 464.579 192.142 456.269 192.142C452.579 192.062 448.93 192.928 445.673 194.656C445.673 190.691 444.09 186.886 441.27 184.082C438.451 181.278 434.627 179.703 430.64 179.703C430.64 169.003 418.135 160.337 402.698 160.337C400.151 160.337 397.61 160.587 395.113 161.085C399.066 144.447 388.471 122.753 367.79 108.255C347.109 93.7564 323.47 91.1884 309.028 100.23C307.114 92.9289 302.822 86.4644 296.822 81.8473C290.823 77.2302 283.454 74.7207 275.868 74.7106C270.146 74.7092 264.516 76.1329 259.49 78.8523C254.463 81.5718 250.201 85.5011 247.093 90.2797C247.107 90.0837 247.107 89.8866 247.093 89.6906C247.093 81.425 236.093 74.7106 222.539 74.7106C215.434 74.4616 208.455 76.6217 202.746 80.8364C204.116 77.7965 204.428 74.3888 203.633 71.1527C202.95 68.3756 201.484 65.8511 199.406 63.875C197.329 61.8988 194.728 60.5535 191.908 59.9984C188.852 59.411 185.688 59.7795 182.851 61.0537C180.015 62.3279 177.645 64.4455 176.068 67.1142C169.845 47.6522 157.563 30.6621 140.996 18.598C124.429 6.53389 104.436 0.0210067 83.9042 0C65.2483 0.00164773 46.9917 5.37486 31.3388 15.4711C15.686 25.5673 3.3053 39.9549 -4.30661 56.8963C-6.59476 53.8946 -9.54984 51.4598 -12.9419 49.7844C-16.334 48.1091 -20.0696 47.2377 -23.8568 47.2388C-29.4395 47.2476 -34.8544 49.1422 -39.2128 52.6122C-43.5712 56.0822 -46.6156 60.9222 -47.8467 66.3383C-58.5925 59.7576 -70.9689 56.2841 -83.5881 56.3072C-97.9276 56.3023 -111.905 60.7837 -123.542 69.1178C-135.179 77.4518 -143.885 89.2159 -148.427 102.744C-149.854 95.9929 -153.573 89.9358 -158.96 85.5907C-164.347 81.2455 -171.074 78.8775 -178.01 78.8837C-184.795 78.8865 -191.381 81.164 -196.704 85.3477C-202.028 89.5314 -205.779 95.3773 -207.351 101.942C-211.585 95.5783 -217.538 90.5322 -224.527 87.3853C-231.516 84.2384 -239.256 83.1187 -246.857 84.1539C-255.228 85.2933 -263.033 88.996 -269.191 94.7479C-275.35 100.5 -279.557 108.016 -281.226 116.253C-283.246 126.256 -281.371 136.649 -275.982 145.33C-279.776 143.695 -283.868 142.848 -288.004 142.842C-294.33 142.846 -300.495 144.827 -305.629 148.503C-310.763 152.179 -314.607 157.367 -316.618 163.333C-319.355 159.135 -323.104 155.685 -327.524 153.298C-331.944 150.91 -336.894 149.661 -341.924 149.663C-349.927 149.663 -357.603 152.826 -363.262 158.454C-368.92 164.083 -372.099 171.716 -372.099 179.676C-372.079 181.281 -371.935 182.882 -371.668 184.465C-378.779 182.391 -386.259 181.879 -393.587 182.967C-410.127 185.053 -421.691 193.827 -422.229 199.016C-422.508 200.35 -422.377 201.737 -421.854 202.996C-421.332 204.255 -420.44 205.329 -419.296 206.079L-441 210.946L505 211Z" fill="url(#paint0_linear_942_2999)" fill-opacity="0.4"/>
<defs>
<linearGradient id="paint0_linear_942_2999" x1="-51.5" y1="312.5" x2="-128" y2="-28.5" gradientUnits="userSpaceOnUse">
<stop stop-color="#7976FF"/>
<stop offset="1" stop-color="#FFA5F6" stop-opacity="0"/>
</linearGradient>
</defs>
</svg>
