<svg width="666" height="211" viewBox="0 0 666 211" fill="none" xmlns="http://www.w3.org/2000/svg">
<path d="M946 211L911.442 203.724C911.996 202.87 912.294 201.878 912.302 200.862C912.302 196.047 905.579 192.142 897.269 192.142C893.579 192.062 889.93 192.928 886.673 194.656C886.673 190.691 885.09 186.886 882.27 184.082C879.451 181.278 875.627 179.703 871.64 179.703C871.64 169.003 859.135 160.337 843.698 160.337C841.151 160.337 838.61 160.587 836.113 161.085C840.066 144.447 829.471 122.753 808.79 108.255C788.109 93.7564 764.47 91.1884 750.028 100.23C748.114 92.9289 743.822 86.4644 737.822 81.8473C731.823 77.2302 724.454 74.7207 716.868 74.7106C711.146 74.7092 705.516 76.1329 700.49 78.8523C695.463 81.5718 691.201 85.5011 688.093 90.2797C688.107 90.0837 688.107 89.8866 688.093 89.6906C688.093 81.425 677.093 74.7106 663.539 74.7106C656.434 74.4616 649.455 76.6217 643.746 80.8364C645.116 77.7965 645.428 74.3888 644.633 71.1527C643.95 68.3756 642.484 65.8511 640.406 63.875C638.329 61.8988 635.728 60.5535 632.908 59.9984C629.852 59.411 626.688 59.7795 623.851 61.0537C621.015 62.3279 618.645 64.4455 617.068 67.1142C610.845 47.6522 598.563 30.6621 581.996 18.598C565.429 6.53389 545.436 0.0210067 524.904 0C506.248 0.00164773 487.992 5.37486 472.339 15.4711C456.686 25.5673 444.305 39.9549 436.693 56.8963C434.405 53.8946 431.45 51.4598 428.058 49.7844C424.666 48.1091 420.93 47.2377 417.143 47.2388C411.561 47.2476 406.146 49.1422 401.787 52.6122C397.429 56.0822 394.384 60.9222 393.153 66.3383C382.407 59.7576 370.031 56.2841 357.412 56.3072C343.072 56.3023 329.095 60.7837 317.458 69.1178C305.821 77.4518 297.115 89.2159 292.573 102.744C291.146 95.9929 287.427 89.9358 282.04 85.5907C276.653 81.2455 269.926 78.8775 262.99 78.8837C256.205 78.8865 249.619 81.164 244.296 85.3477C238.972 89.5314 235.221 95.3773 233.649 101.942C229.415 95.5783 223.462 90.5322 216.473 87.3853C209.484 84.2384 201.744 83.1187 194.143 84.1539C185.772 85.2933 177.967 88.996 171.809 94.7479C165.65 100.5 161.443 108.016 159.774 116.253C157.754 126.256 159.629 136.649 165.018 145.33C161.224 143.695 157.132 142.848 152.996 142.842C146.67 142.846 140.505 144.827 135.371 148.503C130.237 152.179 126.393 157.367 124.382 163.333C121.645 159.135 117.896 155.685 113.476 153.298C109.056 150.91 104.106 149.661 99.0759 149.663C91.0732 149.663 83.3973 152.826 77.7385 158.454C72.0797 164.083 68.901 171.716 68.901 179.676C68.9206 181.281 69.0649 182.882 69.3317 184.465C62.2213 182.391 54.7414 181.879 47.4126 182.967C30.8732 185.053 19.3093 193.827 18.7715 199.016C18.4919 200.35 18.623 201.737 19.1457 202.996C19.6685 204.255 20.5596 205.329 21.7037 206.079L0 210.946L946 211Z" fill="white"/>
<path d="M946 211L911.442 203.724C911.996 202.87 912.294 201.878 912.302 200.862C912.302 196.047 905.579 192.142 897.269 192.142C893.579 192.062 889.93 192.928 886.673 194.656C886.673 190.691 885.09 186.886 882.27 184.082C879.451 181.278 875.627 179.703 871.64 179.703C871.64 169.003 859.135 160.337 843.698 160.337C841.151 160.337 838.61 160.587 836.113 161.085C840.066 144.447 829.471 122.753 808.79 108.255C788.109 93.7564 764.47 91.1884 750.028 100.23C748.114 92.9289 743.822 86.4644 737.822 81.8473C731.823 77.2302 724.454 74.7207 716.868 74.7106C711.146 74.7092 705.516 76.1329 700.49 78.8523C695.463 81.5718 691.201 85.5011 688.093 90.2797C688.107 90.0837 688.107 89.8866 688.093 89.6906C688.093 81.425 677.093 74.7106 663.539 74.7106C656.434 74.4616 649.455 76.6217 643.746 80.8364C645.116 77.7965 645.428 74.3888 644.633 71.1527C643.95 68.3756 642.484 65.8511 640.406 63.875C638.329 61.8988 635.728 60.5535 632.908 59.9984C629.852 59.411 626.688 59.7795 623.851 61.0537C621.015 62.3279 618.645 64.4455 617.068 67.1142C610.845 47.6522 598.563 30.6621 581.996 18.598C565.429 6.53389 545.436 0.0210067 524.904 0C506.248 0.00164773 487.992 5.37486 472.339 15.4711C456.686 25.5673 444.305 39.9549 436.693 56.8963C434.405 53.8946 431.45 51.4598 428.058 49.7844C424.666 48.1091 420.93 47.2377 417.143 47.2388C411.561 47.2476 406.146 49.1422 401.787 52.6122C397.429 56.0822 394.384 60.9222 393.153 66.3383C382.407 59.7576 370.031 56.2841 357.412 56.3072C343.072 56.3023 329.095 60.7837 317.458 69.1178C305.821 77.4518 297.115 89.2159 292.573 102.744C291.146 95.9929 287.427 89.9358 282.04 85.5907C276.653 81.2455 269.926 78.8775 262.99 78.8837C256.205 78.8865 249.619 81.164 244.296 85.3477C238.972 89.5314 235.221 95.3773 233.649 101.942C229.415 95.5783 223.462 90.5322 216.473 87.3853C209.484 84.2384 201.744 83.1187 194.143 84.1539C185.772 85.2933 177.967 88.996 171.809 94.7479C165.65 100.5 161.443 108.016 159.774 116.253C157.754 126.256 159.629 136.649 165.018 145.33C161.224 143.695 157.132 142.848 152.996 142.842C146.67 142.846 140.505 144.827 135.371 148.503C130.237 152.179 126.393 157.367 124.382 163.333C121.645 159.135 117.896 155.685 113.476 153.298C109.056 150.91 104.106 149.661 99.0759 149.663C91.0732 149.663 83.3973 152.826 77.7385 158.454C72.0797 164.083 68.901 171.716 68.901 179.676C68.9206 181.281 69.0649 182.882 69.3317 184.465C62.2213 182.391 54.7414 181.879 47.4126 182.967C30.8732 185.053 19.3093 193.827 18.7715 199.016C18.4919 200.35 18.623 201.737 19.1457 202.996C19.6685 204.255 20.5596 205.329 21.7037 206.079L0 210.946L946 211Z" fill="url(#paint0_linear_942_2998)" fill-opacity="0.4"/>
<defs>
<linearGradient id="paint0_linear_942_2998" x1="389.5" y1="312.5" x2="313" y2="-28.5" gradientUnits="userSpaceOnUse">
<stop stop-color="#7976FF"/>
<stop offset="1" stop-color="#FFA5F6" stop-opacity="0"/>
</linearGradient>
</defs>
</svg>
