<svg width="403" height="183" viewBox="0 0 403 183" fill="none" xmlns="http://www.w3.org/2000/svg">
<g clip-path="url(#clip0_495_5222)">
<g clip-path="url(#clip1_495_5222)">
<path d="M88.7172 50.8992L87.8821 37.5994C87.6762 34.3582 83.8274 32.8683 82.5794 35.5236L79.8576 41.1465L73.9021 39.3621C71.0727 38.5338 69.6165 42.3327 71.8965 44.6849L81.2106 54.2153C81.7774 54.9788 82.5884 55.5267 83.5101 55.7687C84.4319 56.0108 85.4093 55.9325 86.2814 55.5468C87.1535 55.1612 87.8683 54.4911 88.308 53.647C88.7476 52.8029 88.886 51.8351 88.7002 50.9031L88.7172 50.8992Z" fill="#D8C1FF"/>
<path d="M94.988 64.8285L94.0512 51.5519C93.8509 48.3094 90.0235 46.8087 88.7542 49.4748L86.0323 55.0977L80.0755 53.3077C77.2461 52.4793 75.7912 56.2839 78.0699 58.6305L87.3879 68.1778C87.9368 68.9945 88.7572 69.5918 89.705 69.8647C90.6529 70.1375 91.6673 70.0685 92.5701 69.6696C93.4729 69.2707 94.2063 68.5676 94.6413 67.6839C95.0762 66.8001 95.185 65.7923 94.9484 64.8375L94.988 64.8285Z" fill="#D8C1FF"/>
<path d="M101.834 80.4925L101.824 63.9883C101.834 60.0044 97.2114 57.8324 95.4389 61.0283L91.7146 67.8579L84.4745 65.1883C81.0515 63.9743 78.9602 68.5583 81.5953 71.6055L92.4585 84.0877C96.0351 88.2882 101.826 86.1525 101.834 80.4925Z" fill="#D8C1FF"/>
<path d="M108.5 98.597L108.49 82.0928C108.484 78.1128 104.243 74.0998 102.106 79.109L98.361 85.8486L91.121 83.1789C85.6782 81.0107 85.6011 86.5502 88.2248 89.6L99.088 102.082C104.265 108.992 109.08 106.67 108.5 98.597Z" fill="#D8C1FF"/>
<path d="M115.843 117.163L115.834 100.665C115.827 96.6788 111.221 94.503 109.444 97.682L105.692 104.518L98.4518 101.848C95.0358 100.639 92.9389 105.224 95.5557 108.27L106.43 120.749C110.057 124.962 115.824 122.826 115.843 117.163Z" fill="#D8C1FF"/>
<path d="M122.281 136.92L124.741 118.761C124.913 117.863 124.778 116.934 124.358 116.123C123.937 115.311 123.255 114.664 122.422 114.284C121.588 113.905 120.65 113.814 119.758 114.028C118.866 114.245 118.072 114.752 117.501 115.469L112.01 122.347L103.716 119.438C102.851 119.101 101.895 119.067 101.006 119.341C100.118 119.615 99.3479 120.182 98.8233 120.948C98.2967 121.714 98.05 122.636 98.1244 123.561C98.1964 124.484 98.58 125.354 99.2126 126.031L110.356 140.339C111.192 141.358 112.309 142.11 113.569 142.502C114.83 142.894 116.179 142.909 117.449 142.545C118.719 142.177 119.854 141.448 120.715 140.447C121.575 139.45 122.122 138.223 122.287 136.918L122.281 136.92Z" fill="#D8C1FF"/>
<path d="M125.291 159.705L130.021 140.293C130.282 139.441 130.258 138.527 129.95 137.692C129.643 136.856 129.07 136.144 128.319 135.663C127.567 135.183 126.678 134.961 125.787 135.031C124.897 135.101 124.053 135.459 123.385 136.051L116.843 141.949L109.125 137.736C108.329 137.321 107.419 137.178 106.533 137.328C105.647 137.478 104.835 137.913 104.219 138.566C103.604 139.219 103.219 140.055 103.124 140.945C103.029 141.836 103.229 142.732 103.694 143.498L112.975 161.307C113.646 162.441 114.636 163.353 115.824 163.93C117.011 164.507 118.342 164.723 119.653 164.553C120.964 164.383 122.196 163.833 123.197 162.971C124.199 162.11 124.924 160.975 125.285 159.707L125.291 159.705Z" fill="#D8C1FF"/>
<path d="M128.985 180.386L135.209 160.566C135.556 159.536 135.553 158.421 135.198 157.395C134.843 156.369 134.158 155.489 133.249 154.892C132.339 154.295 131.257 154.015 130.171 154.096C129.084 154.176 128.054 154.613 127.241 155.337L119.351 162.438L110.046 157.367C109.086 156.861 107.985 156.684 106.913 156.864C105.84 157.043 104.857 157.569 104.113 158.36C103.369 159.151 102.906 160.164 102.796 161.242C102.686 162.32 102.934 163.403 103.503 164.326L114.159 182.14C114.956 183.507 116.137 184.611 117.557 185.317C118.976 186.023 120.572 186.3 122.149 186.114C123.725 185.933 125.214 185.295 126.432 184.279C127.65 183.264 128.542 181.915 129 180.4L128.985 180.386Z" fill="#D8C1FF"/>
<path d="M128.446 197.768L138.256 184.268C140.653 180.994 135.19 177.438 130.683 179.363L121.223 183.523L112.214 178.526C107.944 176.155 102.138 179.136 104.163 182.66L112.511 197.092C115.783 205.865 122.528 206.314 128.446 197.768Z" fill="#D8C1FF"/>
<path d="M74.9259 36.7165C73.0044 31.8236 72.5707 27.3784 73.9578 26.8657C75.3449 26.3531 78.0291 29.8748 79.9331 34.7955C81.8371 39.7162 82.2895 44.1393 80.8955 44.6476C79.5015 45.1559 76.8481 41.639 74.9259 36.7165Z" fill="#D8C1FF"/>
<path d="M10.3838 147.497L2.11506 138.326C0.101512 136.073 1.57075 132.591 4.17411 133.471L9.62849 135.352L12.3059 130.237C13.5754 127.832 17.0666 129.344 17.1324 132.363L17.4167 144.71C17.5224 145.567 17.3407 146.435 16.8998 147.179C16.459 147.922 15.7839 148.5 14.9797 148.822C14.1724 149.137 13.2841 149.18 12.4509 148.944C11.6191 148.705 10.8916 148.196 10.3838 147.497V147.497Z" fill="#D8C1FF"/>
<path d="M15.5845 160.699L7.29884 151.532C5.29044 149.302 6.77148 145.793 9.35223 146.678L14.8123 148.558L17.5105 143.456C18.7761 141.034 22.2499 142.574 22.3201 145.586L22.6175 157.912C22.7262 158.769 22.546 159.638 22.1053 160.382C21.6647 161.126 20.9885 161.704 20.1832 162.023C19.378 162.343 18.4893 162.387 17.657 162.149C16.8248 161.91 16.0962 161.402 15.5858 160.705L15.5845 160.699Z" fill="#D8C1FF"/>
<path d="M21.5408 175.281L10.588 164.591C7.98601 161.975 9.47786 157.551 12.7527 158.456L19.6535 160.344L22.5673 153.818C23.8742 150.77 28.3842 152.369 28.6888 156.068L29.9931 171.316C30.5241 176.551 25.2896 178.986 21.5408 175.281Z" fill="#D8C1FF"/>
<path d="M29.2462 191.454L18.3103 180.76C15.7044 178.126 17.2001 173.72 20.4711 174.607L27.3493 176.501L30.2839 169.988C31.5869 166.923 36.08 168.526 36.4054 172.238L37.7272 187.459C38.5963 195.395 33.8788 196.112 29.2462 191.454Z" fill="#D8C1FF"/>
<path d="M36.8116 208.34L25.8531 197.651C23.2529 195.016 24.7656 190.606 28.0139 191.498L34.9148 193.387L37.8268 186.879C39.1298 183.814 43.6397 185.413 43.9708 189.124L45.2757 204.348C45.7288 209.607 40.6247 211.988 36.8116 208.34Z" fill="#D8C1FF"/>
<path d="M9.71078 139.119C8.34536 139.337 6.61308 135.609 5.83294 130.793C5.0528 125.977 5.52684 121.887 6.88532 121.665C8.24379 121.443 9.98738 125.168 10.7632 129.992C11.5389 134.815 11.0693 138.898 9.71078 139.119Z" fill="#D8C1FF"/>
<path d="M31.0495 66.5613C27.266 63.6405 25.1341 60.0635 26.2929 58.5781C27.4516 57.0926 31.462 58.2493 35.2455 61.1702C39.0289 64.091 41.1596 67.6624 40.0021 69.1534C38.8447 70.6445 34.833 69.4822 31.0495 66.5613Z" fill="#6414EE"/>
<path d="M44.2734 84.1678C41.6369 84.5988 38.6844 79.9297 37.687 73.7471C36.6896 67.5646 38.0186 62.195 40.6564 61.7696C43.2943 61.3442 46.2454 66.0077 47.2441 72.1959C48.2428 78.3841 46.9113 83.7424 44.2734 84.1678Z" fill="#6414EE"/>
<path d="M36.1844 79.0854C30.6826 75.5147 27.4599 70.7296 28.9849 68.402C30.51 66.0744 36.2106 67.0817 41.7124 70.6524C47.2141 74.2232 50.4381 79.0138 48.9131 81.3414C47.388 83.669 41.6875 82.6617 36.1844 79.0854Z" fill="#6414EE"/>
<path d="M55.8905 94.2263L54.836 77.5225C54.562 73.4377 49.7709 71.5708 48.2279 74.886L44.8687 81.9344L37.363 79.6632C33.8145 78.6023 31.9966 83.4201 34.8849 86.3264L46.6003 98.3234C50.525 102.486 56.2568 99.937 55.8905 94.2263Z" fill="#6414EE"/>
<path d="M63.9045 115.779L65.1355 93.4158C65.4357 87.9675 59.3764 84.7671 56.7195 88.9058L51.1322 97.7552L41.5897 93.5976C37.0369 91.6288 33.8663 97.7334 37.2023 102.078L50.8746 119.825C55.491 125.92 63.4905 123.434 63.9045 115.779Z" fill="#6414EE"/>
<path d="M70.5982 130.18L74.2405 110.276C75.1354 105.426 68.3216 103.139 64.8208 107.097L57.4269 115.483L46.5947 112.757C41.4527 111.462 37.1542 117.185 40.6177 120.683L54.8754 135.061C59.7627 139.975 69.3581 137.005 70.5982 130.18Z" fill="#6414EE"/>
<path d="M76.9954 151.06L80.615 131.16C81.5099 126.311 74.7188 124.018 71.201 127.981L63.8254 136.368L52.9824 133.621C47.8404 132.327 43.5262 138.059 47.0054 141.547L61.2687 155.924C66.1586 160.849 75.754 157.879 76.9954 151.06Z" fill="#6414EE"/>
<path d="M83.1091 171.922L86.7313 152.033C87.6262 147.184 80.8125 144.896 77.3117 148.855L69.9139 157.223L59.0817 154.498C53.9567 153.199 49.6425 158.932 53.1217 162.42L67.376 176.757C72.251 181.721 81.8633 178.747 83.1091 171.922Z" fill="#6414EE"/>
<path d="M86.8868 191.694L92.0327 172.15C93.2883 167.396 86.7032 164.6 82.8909 168.262L74.8835 176.071L64.2838 172.517C59.2724 170.831 54.5301 176.199 57.74 179.991L70.8677 195.357C75.3375 200.603 85.1298 198.364 86.8868 191.694Z" fill="#6414EE"/>
</g>
<g clip-path="url(#clip2_495_5222)">
<path d="M247.863 174.907C248.903 170.512 249.872 166.418 250.985 162.593C251.937 159.128 252.533 155.575 252.765 151.99L253.608 139.438C254.324 128.89 256.641 118.511 260.479 108.655L265.1 96.6313L265.402 96.507C272.269 93.7008 279.708 92.5598 287.104 93.1779C294.501 93.796 301.644 96.1556 307.945 100.062L298.494 120.73C292.268 134.319 283.192 146.423 271.877 156.229C266.367 160.969 262.496 167.315 260.812 174.368C260.552 175.404 260.302 176.513 260.062 177.612C257.2 190.443 257.762 199.295 261.686 203.213C267.224 208.727 280.839 205.732 289.854 203.752L291.072 203.482C312.401 198.818 343.119 204.104 369.277 216.957L363.75 228.12C344.253 218.553 315.055 210.976 293.747 215.682L292.55 215.941C280.871 218.511 263.227 222.388 252.849 212.054C245.531 204.705 243.865 192.579 247.863 174.907Z" fill="#33CFC8"/>
<path d="M293.466 132.39L295.548 127.083L300.565 113.06C305.537 99.5602 308.085 85.2948 308.091 70.9162V48.9531L316.169 48.3001C322.428 47.7715 328.72 47.7715 334.979 48.3001L342.359 48.922V59.4631C342.317 80.7227 333.939 101.126 319.011 116.325L313.733 122.429C310.057 126.685 307.136 131.532 305.093 136.764V136.847C298.848 152.829 298.286 166.335 303.417 177.011C312.411 195.667 336.894 203.41 353.091 208.509C355.527 209.276 357.827 210.002 359.815 210.686L355.735 222.44C353.903 221.807 351.675 221.113 349.323 220.367C332.179 214.977 303.522 205.939 292.155 182.38C285.503 168.532 285.909 151.7 293.466 132.39Z" fill="#98DFDC"/>
<path d="M253.016 88.9303C253.016 88.9303 256.628 84.5874 257.346 83.4265C266.246 69.2371 265.465 58.468 265.465 46.6418V32.9394L272.117 29.5812C275.838 27.6931 279.701 26.0956 283.671 24.8031L293.039 21.6936L296.36 33.4059C297.904 38.8714 298.15 44.6196 297.079 50.1961C296.007 55.7726 293.648 61.0245 290.187 65.5368C290.187 65.5368 281.225 76.3992 270.92 87.4999C250.351 109.65 250.538 116.169 254.712 135.593L255.826 140.848L243.585 143.335C243.22 141.552 242.846 139.842 242.544 138.153C238.036 117.299 232.249 110.106 253.016 88.9303Z" fill="#98DFDC"/>
<path d="M208.671 3.61745L211.378 2.67426C221.747 -0.912622 233.031 -0.8907 243.386 2.73645L245.895 3.61745C254.198 24.1086 254.694 46.9148 247.29 67.7447L246.134 70.9992C241.852 83.0276 241.33 96.0655 244.636 108.396C252.963 139.386 265.371 163.702 279.653 174.658C290.27 182.805 372.639 213.982 429.839 242.889C451.105 253.638 450.897 273.528 451.053 301.969H434.534C434.534 276.7 433.826 262.852 415.87 253.555C355.735 222.46 282.765 196.963 270.44 187.49C240.888 170.398 235.486 141.884 229.594 99.2744C228.179 93.0198 225.809 87.018 222.568 81.478L217.988 73.6422C206.041 52.3333 202.709 27.2887 208.671 3.61745V3.61745Z" fill="#98DFDC"/>
<path d="M163.849 83.9448L170.178 84.5045C176.449 85.044 182.562 86.7565 188.196 89.5522L194.838 92.8482L186.979 108.748C174.758 140.164 192.183 157.618 197.232 161.432C205.965 167.164 211.992 170.014 226.18 172.554C306.77 185.613 369.351 216.552 371.974 218.076L358.941 226.109C350.614 222.45 309.476 198.963 224.556 184.919C221.798 184.546 201.229 181.364 184.636 167.496L184.168 167.081C180.867 164.272 177.879 161.117 175.258 157.67C172.83 154.745 170.564 151.689 168.471 148.518C156.833 130.97 149.692 103.223 163.849 83.9448Z" fill="#98DFDC"/>
<path d="M212.533 6.45723C212.533 4.52937 219.101 2.87099 227.262 2.75697C235.423 2.64296 242.064 4.10441 242.096 6.02191C242.127 7.9394 235.527 9.59776 227.366 9.72214C219.205 9.84652 212.564 8.37472 212.533 6.45723Z" fill="#005955"/>
<path d="M165.4 86.7329C165.285 87.2201 171.135 89.1686 178.484 91.0861C185.833 93.0036 191.902 94.1956 192.089 93.667C192.277 93.1384 186.343 90.174 178.984 88.2566C171.625 86.3391 165.535 86.2665 165.4 86.7329Z" fill="#00A099"/>
<path d="M309.444 51.1297C309.444 51.3578 316.533 51.99 325.35 51.99C334.167 51.99 341.245 51.3578 341.245 51.1297C341.245 50.9017 334.146 49.7305 325.35 49.7305C316.554 49.7305 309.444 50.9121 309.444 51.1297Z" fill="#00A099"/>
<path d="M266.766 34.5355C266.849 34.7324 272.939 33.271 280.017 30.3896C287.096 27.5081 292.508 24.4298 292.404 24.2225C292.3 24.0152 285.826 25.7254 278.747 28.5654C271.669 31.4053 266.704 34.3178 266.766 34.5355Z" fill="#00A099"/>
<path d="M350.926 156.747C355.36 152.208 359.004 148.113 361.96 144.517C364.138 141.862 365.32 138.534 365.301 135.106V130.835C365.294 125.824 366.681 120.909 369.309 116.635L374.295 108.52L375.513 108.333C381.717 107.329 388.08 108.084 393.875 110.51L394.916 110.935C396.2 116.04 395.973 121.406 394.26 126.385C392.548 131.364 389.424 135.743 385.266 138.992L379.343 143.605C377.978 144.664 376.744 145.882 375.669 147.232C372.546 151.088 365.53 159.67 359.92 165.433C346.648 179.021 351.301 201.627 364.645 215.879C365.811 217.102 362.491 214.49 362.47 216.179C362.449 217.869 361.117 215.226 359.92 216.418C358.71 217.534 357.107 218.128 355.459 218.072C353.812 218.016 352.253 217.313 351.124 216.117C332.907 196.849 332.855 175.217 350.926 156.747Z" fill="#98DFDC"/>
<path d="M334.156 115.941C334.601 114.515 334.949 113.061 335.197 111.588L338.788 91.9464C339.992 84.7768 342.842 77.9807 347.116 72.0874L349.489 68.8225C355.643 68.8186 361.604 70.956 366.342 74.8652L366.946 75.3627C366.954 82.141 365.498 88.8417 362.679 95.0112C359.859 101.181 355.741 106.675 350.603 111.121L349.302 112.23C348.166 113.201 347.284 114.432 346.731 115.817C339.174 134.712 346.814 145.273 347.199 145.781C355.86 157.276 357.681 166.926 352.633 174.471C352.161 175.168 351.546 175.756 350.828 176.198C350.11 176.639 349.306 176.923 348.469 177.031C347.639 177.143 346.794 177.076 345.992 176.834C345.193 176.59 344.455 176.18 343.827 175.632C342.757 174.678 342.07 173.371 341.89 171.953C341.71 170.535 342.05 169.099 342.848 167.91C345.232 164.2 341.401 157.659 337.747 152.809C336.457 151.047 326.672 138.246 334.156 115.941Z" fill="#98DFDC"/>
<path d="M378.76 219.548C379.02 209.836 385.12 199.772 395.498 191.926C397.174 190.661 399.339 189.179 401.838 187.469C407.99 183.323 417.119 177.042 423.906 170.18C425.614 168.445 426.909 166.351 427.696 164.051C428.484 161.751 428.743 159.305 428.454 156.892V156.644C427.531 148.949 428.763 141.151 432.014 134.111L432.962 132.038L433.336 131.934C439.785 130.226 446.633 130.858 452.656 133.717C453.916 144.081 451.844 153.71 445.807 162.241L438.656 172.885C435.939 179.695 418.878 190.879 408.937 197.699C406.564 199.316 404.513 200.715 403.076 201.845C395.79 207.39 391.439 213.972 391.283 219.879C391.2 221.272 391.438 222.666 391.98 223.953C392.974 225.622 394.233 227.12 395.707 228.389C396.935 229.425 396.414 229.799 396.602 231.384C396.784 232.654 396.557 233.948 395.953 235.081C395.348 236.214 394.398 237.126 393.24 237.686C392.375 238.111 391.424 238.331 390.46 238.329C388.984 238.333 387.555 237.811 386.432 236.857C383.906 234.75 381.901 232.094 380.571 229.092C379.241 226.091 378.621 222.825 378.76 219.548V219.548Z" fill="#98DFDC"/>
<path d="M404.711 176.223C397.684 170.439 394.156 161.204 394.718 150.694V150.466C394.828 149.512 394.722 148.544 394.405 147.637C391.498 138.951 392.74 130.77 398.132 123.093L401.838 117.827L407.042 118.48C408.869 118.71 410.676 119.081 412.445 119.589L418.233 121.279L417.816 129.239C417.474 135.563 415.118 141.615 411.092 146.517L408.292 149.917C407.491 150.86 407.062 152.061 407.084 153.296C407.167 161.111 410.769 165.101 412.632 166.635C414.784 168.526 416.475 170.879 417.577 173.517C418.679 176.156 419.163 179.009 418.992 181.861C418.784 187.583 416.328 192.516 412.268 195.398C411.212 196.141 409.949 196.539 408.656 196.538C407.796 196.525 406.948 196.341 406.16 195.998C405.372 195.655 404.66 195.16 404.067 194.541C403.473 193.921 403.009 193.191 402.701 192.391C402.393 191.592 402.249 190.739 402.275 189.884C402.296 188.946 402.557 188.029 403.035 187.22C403.514 186.422 400.266 191.262 401.078 190.785C401.89 190.309 404.378 190.951 404.451 188.93C404.534 187.987 403.784 187.251 403.482 186.36C405.314 185.251 408.635 180.079 404.711 176.223Z" fill="#98DFDC"/>
<path d="M357.328 75.4663C352.977 73.8494 349.718 71.8283 350.041 70.9576C350.364 70.087 354.205 70.6778 358.546 72.2947C362.886 73.9116 366.165 75.9224 365.832 76.793C365.499 77.6637 361.679 77.0729 357.328 75.4663Z" fill="#005955"/>
<path d="M384.548 112.396C379.687 111.712 375.835 110.603 375.95 109.929C376.064 109.256 380.114 109.266 384.964 109.929C389.815 110.593 393.677 111.723 393.563 112.396C393.448 113.07 389.409 113.08 384.548 112.396Z" fill="#005955"/>
</g>
</g>
<defs>
<clipPath id="clip0_495_5222">
<path d="M-45 -25H379C392.255 -25 403 -14.2548 403 -1V159C403 172.255 392.255 183 379 183H-45V-25Z" fill="white"/>
</clipPath>
<clipPath id="clip1_495_5222">
<rect width="126" height="232" fill="white" transform="matrix(-0.974842 0.222895 0.222895 0.974842 103.83 20)"/>
</clipPath>
<clipPath id="clip2_495_5222">
<rect width="297" height="302" fill="white" transform="matrix(-1 0 0 1 453 0)"/>
</clipPath>
</defs>
</svg>
