<svg width="273" height="211" viewBox="0 0 273 211" fill="none" xmlns="http://www.w3.org/2000/svg">
<path d="M273 211L238.442 203.724C238.996 202.87 239.294 201.878 239.302 200.862C239.302 196.047 232.579 192.142 224.269 192.142C220.579 192.062 216.93 192.928 213.673 194.656C213.673 190.691 212.089 186.886 209.27 184.082C206.451 181.278 202.627 179.703 198.64 179.703C198.64 169.003 186.135 160.337 170.698 160.337C168.151 160.337 165.61 160.587 163.113 161.085C167.066 144.447 156.471 122.753 135.79 108.255C115.109 93.7564 91.4698 91.1884 77.0281 100.23C75.1138 92.9289 70.8218 86.4644 64.8224 81.8473C58.8229 77.2302 51.454 74.7207 43.8684 74.7106C38.1465 74.7092 32.516 76.1329 27.4895 78.8523C22.463 81.5718 18.2014 85.5011 15.0934 90.2797C15.1066 90.0837 15.1066 89.8866 15.0934 89.6906C15.0934 81.425 4.09302 74.7106 -9.46124 74.7106C-16.5665 74.4616 -23.5455 76.6217 -29.2543 80.8364C-27.8842 77.7965 -27.5717 74.3888 -28.3666 71.1527C-29.0497 68.3756 -30.5164 65.8511 -32.5937 63.875C-34.671 61.8988 -37.2721 60.5535 -40.0918 59.9984C-43.1476 59.411 -46.312 59.7795 -49.1486 61.0537C-51.9851 62.3279 -54.3549 64.4455 -55.9323 67.1142C-62.1547 47.6522 -74.4372 30.6621 -91.0039 18.598C-107.571 6.53389 -127.564 0.0210067 -148.096 0C-166.752 0.00164773 -185.008 5.37486 -200.661 15.4711C-216.314 25.5673 -228.695 39.9549 -236.307 56.8963C-238.595 53.8946 -241.55 51.4598 -244.942 49.7844C-248.334 48.1091 -252.07 47.2377 -255.857 47.2388C-261.439 47.2476 -266.854 49.1422 -271.213 52.6122C-275.571 56.0822 -278.616 60.9222 -279.847 66.3383C-290.593 59.7576 -302.969 56.2841 -315.588 56.3072C-329.928 56.3023 -343.905 60.7837 -355.542 69.1178C-367.179 77.4518 -375.885 89.2159 -380.427 102.744C-381.854 95.9929 -385.573 89.9358 -390.96 85.5907C-396.347 81.2456 -403.074 78.8775 -410.01 78.8837C-416.795 78.8865 -423.381 81.164 -428.704 85.3477C-434.028 89.5314 -437.779 95.3773 -439.351 101.942C-443.585 95.5783 -449.538 90.5322 -456.527 87.3853C-463.516 84.2384 -471.256 83.1187 -478.857 84.1539C-487.228 85.2933 -495.033 88.996 -501.191 94.7479C-507.35 100.5 -511.557 108.016 -513.226 116.253C-515.246 126.256 -513.371 136.649 -507.982 145.33C-511.776 143.695 -515.868 142.848 -520.004 142.842C-526.33 142.846 -532.495 144.827 -537.629 148.503C-542.763 152.179 -546.607 157.367 -548.618 163.333C-551.355 159.135 -555.104 155.685 -559.524 153.298C-563.944 150.91 -568.894 149.661 -573.924 149.663C-581.927 149.663 -589.603 152.826 -595.262 158.454C-600.92 164.083 -604.099 171.716 -604.099 179.676C-604.079 181.281 -603.935 182.882 -603.668 184.465C-610.779 182.391 -618.259 181.879 -625.587 182.967C-642.127 185.053 -653.691 193.827 -654.229 199.016C-654.508 200.35 -654.377 201.737 -653.854 202.996C-653.332 204.255 -652.44 205.329 -651.296 206.079L-673 210.946L273 211Z" fill="white"/>
<path d="M273 211L238.442 203.724C238.996 202.87 239.294 201.878 239.302 200.862C239.302 196.047 232.579 192.142 224.269 192.142C220.579 192.062 216.93 192.928 213.673 194.656C213.673 190.691 212.089 186.886 209.27 184.082C206.451 181.278 202.627 179.703 198.64 179.703C198.64 169.003 186.135 160.337 170.698 160.337C168.151 160.337 165.61 160.587 163.113 161.085C167.066 144.447 156.471 122.753 135.79 108.255C115.109 93.7564 91.4698 91.1884 77.0281 100.23C75.1138 92.9289 70.8218 86.4644 64.8224 81.8473C58.8229 77.2302 51.454 74.7207 43.8684 74.7106C38.1465 74.7092 32.516 76.1329 27.4895 78.8523C22.463 81.5718 18.2014 85.5011 15.0934 90.2797C15.1066 90.0837 15.1066 89.8866 15.0934 89.6906C15.0934 81.425 4.09302 74.7106 -9.46124 74.7106C-16.5665 74.4616 -23.5455 76.6217 -29.2543 80.8364C-27.8842 77.7965 -27.5717 74.3888 -28.3666 71.1527C-29.0497 68.3756 -30.5164 65.8511 -32.5937 63.875C-34.671 61.8988 -37.2721 60.5535 -40.0918 59.9984C-43.1476 59.411 -46.312 59.7795 -49.1486 61.0537C-51.9851 62.3279 -54.3549 64.4455 -55.9323 67.1142C-62.1547 47.6522 -74.4372 30.6621 -91.0039 18.598C-107.571 6.53389 -127.564 0.0210067 -148.096 0C-166.752 0.00164773 -185.008 5.37486 -200.661 15.4711C-216.314 25.5673 -228.695 39.9549 -236.307 56.8963C-238.595 53.8946 -241.55 51.4598 -244.942 49.7844C-248.334 48.1091 -252.07 47.2377 -255.857 47.2388C-261.439 47.2476 -266.854 49.1422 -271.213 52.6122C-275.571 56.0822 -278.616 60.9222 -279.847 66.3383C-290.593 59.7576 -302.969 56.2841 -315.588 56.3072C-329.928 56.3023 -343.905 60.7837 -355.542 69.1178C-367.179 77.4518 -375.885 89.2159 -380.427 102.744C-381.854 95.9929 -385.573 89.9358 -390.96 85.5907C-396.347 81.2456 -403.074 78.8775 -410.01 78.8837C-416.795 78.8865 -423.381 81.164 -428.704 85.3477C-434.028 89.5314 -437.779 95.3773 -439.351 101.942C-443.585 95.5783 -449.538 90.5322 -456.527 87.3853C-463.516 84.2384 -471.256 83.1187 -478.857 84.1539C-487.228 85.2933 -495.033 88.996 -501.191 94.7479C-507.35 100.5 -511.557 108.016 -513.226 116.253C-515.246 126.256 -513.371 136.649 -507.982 145.33C-511.776 143.695 -515.868 142.848 -520.004 142.842C-526.33 142.846 -532.495 144.827 -537.629 148.503C-542.763 152.179 -546.607 157.367 -548.618 163.333C-551.355 159.135 -555.104 155.685 -559.524 153.298C-563.944 150.91 -568.894 149.661 -573.924 149.663C-581.927 149.663 -589.603 152.826 -595.262 158.454C-600.92 164.083 -604.099 171.716 -604.099 179.676C-604.079 181.281 -603.935 182.882 -603.668 184.465C-610.779 182.391 -618.259 181.879 -625.587 182.967C-642.127 185.053 -653.691 193.827 -654.229 199.016C-654.508 200.35 -654.377 201.737 -653.854 202.996C-653.332 204.255 -652.44 205.329 -651.296 206.079L-673 210.946L273 211Z" fill="url(#paint0_linear_942_3000)" fill-opacity="0.4"/>
<defs>
<linearGradient id="paint0_linear_942_3000" x1="-283.5" y1="312.5" x2="-360" y2="-28.5" gradientUnits="userSpaceOnUse">
<stop stop-color="#7976FF"/>
<stop offset="1" stop-color="#FFA5F6" stop-opacity="0"/>
</linearGradient>
</defs>
</svg>
