<svg width="272" height="97" viewBox="0 0 272 97" fill="none" xmlns="http://www.w3.org/2000/svg">
<path d="M434 97L418.146 93.6549C418.4 93.2626 418.537 92.8064 418.54 92.3393C418.54 90.1258 415.456 88.3307 411.643 88.3307C409.95 88.294 408.276 88.692 406.782 89.4866C406.782 87.6635 406.056 85.9145 404.762 84.6254C403.469 83.3362 401.715 82.6121 399.886 82.6121C399.886 77.6932 394.148 73.7092 387.066 73.7092C385.898 73.7092 384.732 73.8243 383.587 74.0533C385.4 66.4044 380.54 56.4314 371.052 49.7663C361.564 43.1013 350.719 41.9207 344.093 46.0772C343.215 42.7209 341.246 39.749 338.494 37.6265C335.741 35.5039 332.361 34.3503 328.88 34.3456C326.255 34.345 323.672 34.9995 321.366 36.2497C319.06 37.4998 317.105 39.3062 315.679 41.503C315.685 41.4129 315.685 41.3223 315.679 41.2322C315.679 37.4323 310.633 34.3456 304.414 34.3456C301.155 34.2312 297.953 35.2242 295.334 37.1617C295.962 35.7643 296.106 34.1977 295.741 32.71C295.427 31.4333 294.755 30.2728 293.802 29.3643C292.849 28.4559 291.655 27.8374 290.362 27.5822C288.96 27.3122 287.508 27.4816 286.207 28.0673C284.905 28.6531 283.818 29.6266 283.094 30.8534C280.24 21.9065 274.605 14.0958 267.005 8.54978C259.404 3.00373 250.232 0.00965711 240.812 0C232.253 0.000757486 223.878 2.47091 216.697 7.11231C209.516 11.7537 203.836 18.3679 200.343 26.1561C199.294 24.7762 197.938 23.6569 196.382 22.8867C194.826 22.1165 193.112 21.7159 191.374 21.7164C188.813 21.7204 186.329 22.5914 184.329 24.1867C182.33 25.7819 180.933 28.0069 180.368 30.4968C175.439 27.4715 169.761 25.8747 163.971 25.8853C157.393 25.883 150.98 27.9432 145.641 31.7745C140.303 35.6058 136.309 41.014 134.225 47.2331C133.57 44.1294 131.864 41.3449 129.392 39.3474C126.921 37.3498 123.835 36.2612 120.653 36.2641C117.54 36.2653 114.519 37.3124 112.077 39.2357C109.634 41.159 107.913 43.8465 107.192 46.8644C105.25 43.9388 102.518 41.6191 99.3121 40.1724C96.1057 38.7257 92.5547 38.211 89.0676 38.6869C85.2275 39.2107 81.6468 40.9128 78.8213 43.5571C75.9958 46.2014 74.066 49.6567 73.2999 53.4435C72.3735 58.042 73.2337 62.8198 75.7061 66.8107C73.9652 66.0587 72.0881 65.6693 70.1908 65.6668C67.2885 65.6687 64.4602 66.579 62.1048 68.2692C59.7494 69.9593 57.9856 72.344 57.063 75.0866C55.8074 73.1571 54.0876 71.5709 52.0598 70.4734C50.0319 69.3759 47.7609 68.8013 45.4534 68.8024C41.782 68.8024 38.2605 70.2564 35.6644 72.844C33.0683 75.4315 31.61 78.9407 31.61 82.6001C31.619 83.3377 31.6851 84.0737 31.8076 84.8013C28.5455 83.8478 25.1139 83.6127 21.7517 84.1126C14.1638 85.0718 8.85862 89.1052 8.61186 91.4909C8.48362 92.104 8.54374 92.7415 8.78356 93.3204C9.02338 93.8994 9.43222 94.3931 9.95711 94.7375L0 96.9754L434 97Z" fill="white"/>
<path d="M434 97L418.146 93.6549C418.4 93.2626 418.537 92.8064 418.54 92.3393C418.54 90.1258 415.456 88.3307 411.643 88.3307C409.95 88.294 408.276 88.692 406.782 89.4866C406.782 87.6635 406.056 85.9145 404.762 84.6254C403.469 83.3362 401.715 82.6121 399.886 82.6121C399.886 77.6932 394.148 73.7092 387.066 73.7092C385.898 73.7092 384.732 73.8243 383.587 74.0533C385.4 66.4044 380.54 56.4314 371.052 49.7663C361.564 43.1013 350.719 41.9207 344.093 46.0772C343.215 42.7209 341.246 39.749 338.494 37.6265C335.741 35.5039 332.361 34.3503 328.88 34.3456C326.255 34.345 323.672 34.9995 321.366 36.2497C319.06 37.4998 317.105 39.3062 315.679 41.503C315.685 41.4129 315.685 41.3223 315.679 41.2322C315.679 37.4323 310.633 34.3456 304.414 34.3456C301.155 34.2312 297.953 35.2242 295.334 37.1617C295.962 35.7643 296.106 34.1977 295.741 32.71C295.427 31.4333 294.755 30.2728 293.802 29.3643C292.849 28.4559 291.655 27.8374 290.362 27.5822C288.96 27.3122 287.508 27.4816 286.207 28.0673C284.905 28.6531 283.818 29.6266 283.094 30.8534C280.24 21.9065 274.605 14.0958 267.005 8.54978C259.404 3.00373 250.232 0.00965711 240.812 0C232.253 0.000757486 223.878 2.47091 216.697 7.11231C209.516 11.7537 203.836 18.3679 200.343 26.1561C199.294 24.7762 197.938 23.6569 196.382 22.8867C194.826 22.1165 193.112 21.7159 191.374 21.7164C188.813 21.7204 186.329 22.5914 184.329 24.1867C182.33 25.7819 180.933 28.0069 180.368 30.4968C175.439 27.4715 169.761 25.8747 163.971 25.8853C157.393 25.883 150.98 27.9432 145.641 31.7745C140.303 35.6058 136.309 41.014 134.225 47.2331C133.57 44.1294 131.864 41.3449 129.392 39.3474C126.921 37.3498 123.835 36.2612 120.653 36.2641C117.54 36.2653 114.519 37.3124 112.077 39.2357C109.634 41.159 107.913 43.8465 107.192 46.8644C105.25 43.9388 102.518 41.6191 99.3121 40.1724C96.1057 38.7257 92.5547 38.211 89.0676 38.6869C85.2275 39.2107 81.6468 40.9128 78.8213 43.5571C75.9958 46.2014 74.066 49.6567 73.2999 53.4435C72.3735 58.042 73.2337 62.8198 75.7061 66.8107C73.9652 66.0587 72.0881 65.6693 70.1908 65.6668C67.2885 65.6687 64.4602 66.579 62.1048 68.2692C59.7494 69.9593 57.9856 72.344 57.063 75.0866C55.8074 73.1571 54.0876 71.5709 52.0598 70.4734C50.0319 69.3759 47.7609 68.8013 45.4534 68.8024C41.782 68.8024 38.2605 70.2564 35.6644 72.844C33.0683 75.4315 31.61 78.9407 31.61 82.6001C31.619 83.3377 31.6851 84.0737 31.8076 84.8013C28.5455 83.8478 25.1139 83.6127 21.7517 84.1126C14.1638 85.0718 8.85862 89.1052 8.61186 91.4909C8.48362 92.104 8.54374 92.7415 8.78356 93.3204C9.02338 93.8994 9.43222 94.3931 9.95711 94.7375L0 96.9754L434 97Z" fill="url(#paint0_linear_942_3002)" fill-opacity="0.4"/>
<defs>
<linearGradient id="paint0_linear_942_3002" x1="178.692" y1="143.661" x2="143.459" y2="-13.071" gradientUnits="userSpaceOnUse">
<stop stop-color="#7976FF"/>
<stop offset="1" stop-color="#FFA5F6" stop-opacity="0"/>
</linearGradient>
</defs>
</svg>
